name C:\Users\antoi\Documents\MyRepositories\upper-imu-dc\Results\main_tracking\Case_69\FLX01_linearAccelerations_groundFrame.mot
datacolumns 4
datarows 58
range 2.01000000 2.58000000
endheader 
time	radius_imu_x	radius_imu_y	radius_imu_z	
          2.01000000	         -0.37796228	          9.00907585	         -0.07421882	
          2.02000000	         -0.34373617	          9.00550651	         -0.13452514	
          2.03000000	         -0.31194384	          9.00711103	         -0.18995426	
          2.04000000	         -0.28285931	          9.01345578	         -0.23960238	
          2.05000000	         -0.25679157	          9.02416910	         -0.28293849	
          2.06000000	         -0.23406110	          9.03887049	         -0.31980815	
          2.07000000	         -0.21497581	          9.05712077	         -0.35031530	
          2.08000000	         -0.19981553	          9.07841580	         -0.37463766	
          2.09000000	         -0.18881602	          9.10221715	         -0.39286698	
          2.10000000	         -0.18212964	          9.12799914	         -0.40494181	
          2.11000000	         -0.17975501	          9.15529425	         -0.41067961	
          2.12000000	         -0.18147705	          9.18372601	         -0.40986748	
          2.13000000	         -0.18687530	          9.21302151	         -0.40234569	
          2.14000000	         -0.19542291	          9.24300333	         -0.38804391	
          2.15000000	         -0.20661003	          9.27352433	         -0.36702740	
          2.16000000	         -0.22000377	          9.30437939	         -0.33957089	
          2.17000000	         -0.23520139	          9.33521582	         -0.30625920	
          2.18000000	         -0.25172338	          9.36547612	         -0.26807121	
          2.19000000	         -0.26890532	          9.39439571	         -0.22639152	
          2.20000000	         -0.28584280	          9.42105714	         -0.18292277	
          2.21000000	         -0.30144048	          9.44446327	         -0.13949048	
          2.22000000	         -0.31456317	          9.46362180	         -0.09777894	
          2.23000000	         -0.32422097	          9.47760239	         -0.05906462	
          2.24000000	         -0.32970357	          9.48558029	         -0.02399654	
          2.25000000	         -0.33060151	          9.48686241	          0.00750110	
          2.26000000	         -0.32672222	          9.48090301	          0.03615618	
          2.27000000	         -0.31794847	          9.46732980	          0.06311303	
          2.28000000	         -0.30412462	          9.44600249	          0.08960097	
          2.29000000	         -0.28503467	          9.41710473	          0.11659802	
          2.30000000	         -0.26043494	          9.38124899	          0.14457386	
          2.31000000	         -0.23016717	          9.33953902	          0.17336637	
          2.32000000	         -0.19429267	          9.29353978	          0.20216938	
          2.33000000	         -0.15317314	          9.24519507	          0.22969630	
          2.34000000	         -0.10758942	          9.19664197	          0.25440954	
          2.35000000	         -0.05872689	          9.15003728	          0.27482476	
          2.36000000	         -0.00811447	          9.10737401	          0.28976460	
          2.37000000	          0.04250579	          9.07034577	          0.29847797	
          2.38000000	          0.09135587	          9.04027502	          0.30058414	
          2.39000000	          0.13680217	          9.01808313	          0.29589315	
          2.40000000	          0.17751506	          9.00429738	          0.28423005	
          2.41000000	          0.21256584	          8.99907387	          0.26536225	
          2.42000000	          0.24144450	          9.00222529	          0.23905582	
          2.43000000	          0.26401791	          9.01326647	          0.20522338	
          2.44000000	          0.28044895	          9.03147628	          0.16408992	
          2.45000000	          0.29109455	          9.05596362	          0.11631802	
          2.46000000	          0.29641325	          9.08573094	          0.06307107	
          2.47000000	          0.29688873	          9.11971433	          0.00600497	
          2.48000000	          0.29298038	          9.15682254	         -0.05279911	
          2.49000000	          0.28508821	          9.19596924	         -0.11096311	
          2.50000000	          0.27353503	          9.23611492	         -0.16600566	
          2.51000000	          0.25859134	          9.27632556	         -0.21559135	
          2.52000000	          0.24054810	          9.31581531	         -0.25780916	
          2.53000000	          0.21981387	          9.35394107	         -0.29141978	
          2.54000000	          0.19699956	          9.39016201	         -0.31599803	
          2.55000000	          0.17295860	          9.42400762	         -0.33192760	
          2.56000000	          0.14875983	          9.45508054	         -0.34025500	
          2.57000000	          0.12558903	          9.48308233	         -0.34244651	
          2.58000000	          0.10457859	          9.50783582	         -0.34011031	
